<?xml version="1.0" encoding="utf-8"?>
<!-- Generator: Adobe Illustrator 16.0.0, SVG Export Plug-In . SVG Version: 6.00 Build 0)  -->
<!DOCTYPE svg PUBLIC "-//W3C//DTD SVG 1.1//EN" "http://www.w3.org/Graphics/SVG/1.1/DTD/svg11.dtd">
<svg version="1.1" id="Layer_1" xmlns="http://www.w3.org/2000/svg" xmlns:xlink="http://www.w3.org/1999/xlink" x="0px" y="0px"
	 width="595.279px" height="841.891px" viewBox="0 0 595.279 841.891" enable-background="new 0 0 595.279 841.891"
	 xml:space="preserve">
<g>
	<g>
		<path fill="#333333" d="M86.734,371.645c1.016,0,1.875-0.072,2.656-0.288s1.483-0.504,2.108-0.865
			c0.625-0.36,1.171-0.721,1.64-1.153c0.469-0.432,0.859-0.864,1.171-1.297c0.234,0.144,0.391,0.36,0.547,0.648
			c0.155,0.288,0.155,0.648,0.155,0.937c0,0.504-0.155,1.081-0.468,1.657c-0.312,0.577-0.859,1.154-1.562,1.586
			c-0.703,0.504-1.64,0.865-2.889,1.225c-1.171,0.289-2.655,0.505-4.373,0.505c-2.343,0-4.452-0.36-6.248-1.009
			c-1.796-0.648-3.279-1.586-4.451-2.811c-1.171-1.226-2.031-2.667-2.655-4.396c-0.625-1.729-0.859-3.603-0.859-5.693
			c0-2.018,0.312-3.891,0.936-5.62c0.625-1.73,1.484-3.172,2.656-4.396c1.171-1.225,2.656-2.163,4.452-2.811
			c1.796-0.648,3.827-1.009,6.169-1.009c1.562,0,2.967,0.145,4.139,0.361c1.171,0.216,2.108,0.504,2.889,0.936
			c0.782,0.36,1.328,0.865,1.718,1.37c0.392,0.505,0.547,1.082,0.547,1.729c0,0.432-0.078,0.937-0.312,1.297
			c-0.235,0.433-0.546,0.721-1.015,1.009c-0.468,0.288-0.938,0.504-1.64,0.72c-0.625,0.144-1.406,0.216-2.186,0.216
			c0-0.648-0.079-1.225-0.234-1.874c-0.157-0.648-0.39-1.152-0.781-1.657c-0.391-0.505-0.781-0.937-1.406-1.225
			c-0.546-0.288-1.249-0.504-2.108-0.504c-1.328,0-2.42,0.288-3.28,0.793c-0.859,0.504-1.641,1.225-2.187,2.233
			c-0.547,0.937-0.938,2.162-1.171,3.603c-0.235,1.441-0.391,3.026-0.391,4.9c0,1.874,0.156,3.388,0.469,4.756
			c0.312,1.369,0.781,2.522,1.406,3.387c0.624,0.936,1.483,1.585,2.577,2.018C83.923,371.429,85.251,371.645,86.734,371.645z"/>
		<path fill="#333333" d="M100.401,374.312v-2.018h1.718c0.313,0,0.625,0,0.86-0.072c0.234-0.072,0.468-0.145,0.625-0.361
			s0.313-0.432,0.468-0.721c0.079-0.288,0.157-0.721,0.157-1.297v-18.087c0-0.577-0.078-0.937-0.157-1.297
			c-0.078-0.288-0.234-0.576-0.468-0.721c-0.156-0.144-0.391-0.288-0.625-0.36c-0.235-0.072-0.547-0.072-0.86-0.072h-1.718v-2.018
			h14.135v2.018h-1.717c-0.312,0-0.547,0-0.781,0.072c-0.235,0.072-0.468,0.144-0.703,0.288c-0.156,0.144-0.313,0.361-0.469,0.721
			c-0.078,0.289-0.156,0.721-0.156,1.225v20.393h7.653c0.937,0,1.718-0.288,2.265-0.865c0.546-0.577,0.937-1.369,1.171-2.45
			l0.625-2.811h2.265l-0.312,8.432H100.401L100.401,374.312z"/>
		<path fill="#333333" d="M137.495,365.448l-1.171,3.243c-0.078,0.288-0.234,0.648-0.312,1.081
			c-0.079,0.433-0.156,0.792-0.156,1.081c0,0.216,0.078,0.432,0.156,0.649c0.078,0.216,0.234,0.36,0.39,0.432
			c0.157,0.146,0.392,0.217,0.625,0.289c0.235,0.072,0.469,0.072,0.703,0.072h1.718v2.018h-10.699v-2.018h0.469
			c0.391,0,0.703-0.072,1.016-0.144c0.312-0.073,0.546-0.217,0.858-0.433c0.235-0.216,0.469-0.504,0.703-0.865
			c0.234-0.36,0.468-0.792,0.703-1.369l8.903-22.195h5.623l8.591,22.267c0.234,0.505,0.39,0.937,0.625,1.297
			s0.468,0.648,0.703,0.865c0.235,0.216,0.547,0.36,0.86,0.433c0.312,0.072,0.624,0.144,0.936,0.144h0.704v2.018h-13.511v-2.018
			h1.562c0.234,0,0.39,0,0.625-0.072c0.234-0.072,0.391-0.145,0.547-0.289c0.157-0.144,0.312-0.288,0.391-0.432
			c0.078-0.217,0.156-0.433,0.156-0.649c0-0.289-0.078-0.577-0.156-0.865s-0.156-0.504-0.234-0.72l-1.407-3.82H137.495z
			 M144.524,356.945c-0.157-0.432-0.313-0.865-0.469-1.369c-0.156-0.504-0.313-0.937-0.469-1.441
			c-0.156-0.505-0.312-1.009-0.468-1.441c-0.156-0.505-0.234-0.937-0.391-1.369c-0.155,0.36-0.234,0.792-0.39,1.225
			c-0.156,0.433-0.313,0.937-0.547,1.369c-0.157,0.505-0.391,0.938-0.546,1.441c-0.157,0.504-0.312,0.937-0.547,1.369l-2.42,6.414
			h8.278L144.524,356.945z"/>
		<path fill="#333333" d="M172.795,374.672c-1.874,0-3.358-0.144-4.608-0.504c-1.25-0.289-2.187-0.721-2.968-1.225
			c-0.703-0.504-1.25-1.082-1.562-1.73c-0.312-0.649-0.468-1.225-0.468-1.874s0.156-1.225,0.391-1.657
			c0.234-0.432,0.625-0.793,1.015-1.081c0.468-0.289,0.938-0.505,1.484-0.577c0.547-0.144,1.093-0.216,1.718-0.216
			c0,1.081,0.156,2.019,0.391,2.883c0.312,0.792,0.702,1.513,1.171,2.018c0.468,0.504,1.094,0.937,1.796,1.225
			c0.704,0.289,1.406,0.433,2.265,0.433c0.781,0,1.484-0.072,2.109-0.288c0.625-0.217,1.171-0.505,1.562-0.866
			c0.468-0.36,0.781-0.793,1.016-1.297c0.234-0.504,0.312-1.009,0.312-1.585c0-0.648-0.155-1.225-0.39-1.729
			c-0.312-0.505-0.702-0.937-1.25-1.369c-0.547-0.433-1.249-0.865-2.108-1.225c-0.858-0.36-1.874-0.793-3.045-1.225
			c-1.406-0.576-2.655-1.081-3.593-1.657c-1.016-0.577-1.796-1.225-2.343-1.874c-0.625-0.648-1.015-1.369-1.328-2.161
			c-0.312-0.793-0.391-1.658-0.391-2.523c0-1.152,0.235-2.234,0.781-3.17c0.469-0.937,1.172-1.729,2.109-2.378
			c0.859-0.649,1.952-1.153,3.202-1.513c1.249-0.36,2.577-0.504,3.982-0.504c1.485,0,2.812,0.144,3.906,0.36
			c1.093,0.216,2.03,0.504,2.732,0.937c0.703,0.36,1.25,0.866,1.562,1.37c0.312,0.504,0.547,1.081,0.547,1.729
			c0,0.432-0.078,0.865-0.312,1.225c-0.235,0.361-0.547,0.721-0.938,1.009c-0.39,0.288-0.937,0.505-1.562,0.648
			c-0.625,0.144-1.405,0.216-2.186,0.216c0-0.505-0.079-1.081-0.235-1.729c-0.156-0.577-0.391-1.153-0.781-1.729
			c-0.312-0.504-0.78-0.937-1.327-1.297s-1.25-0.504-2.031-0.504c-0.546,0-1.093,0.072-1.561,0.216
			c-0.469,0.144-0.937,0.36-1.328,0.648c-0.391,0.288-0.625,0.648-0.859,1.081c-0.234,0.433-0.313,0.937-0.313,1.514
			c0,0.504,0.079,1.008,0.313,1.513c0.155,0.432,0.546,0.937,1.015,1.369s1.172,0.865,2.031,1.369
			c0.859,0.433,2.03,0.938,3.358,1.441c1.406,0.504,2.577,1.081,3.592,1.658c1.015,0.577,1.797,1.153,2.421,1.802
			c0.625,0.648,1.093,1.297,1.406,2.089s0.469,1.585,0.469,2.522c0,1.226-0.234,2.307-0.781,3.315
			c-0.547,1.009-1.25,1.874-2.265,2.595c-0.938,0.721-2.108,1.297-3.515,1.729C176.074,374.456,174.512,374.672,172.795,374.672z"/>
		<path fill="#333333" d="M199.346,374.672c-1.875,0-3.359-0.144-4.608-0.504c-1.249-0.289-2.186-0.721-2.967-1.225
			c-0.703-0.504-1.25-1.082-1.562-1.73c-0.312-0.649-0.468-1.225-0.468-1.874s0.156-1.225,0.391-1.657
			c0.234-0.432,0.625-0.793,1.015-1.081c0.391-0.289,0.937-0.505,1.484-0.577c0.546-0.144,1.093-0.216,1.718-0.216
			c0,1.081,0.156,2.019,0.39,2.883c0.312,0.792,0.704,1.513,1.172,2.018c0.469,0.504,1.093,0.937,1.796,1.225
			c0.703,0.289,1.406,0.433,2.265,0.433c0.781,0,1.483-0.072,2.108-0.288c0.625-0.217,1.172-0.505,1.562-0.866
			c0.47-0.36,0.782-0.793,1.015-1.297c0.235-0.504,0.312-1.009,0.312-1.585c0-0.648-0.155-1.225-0.39-1.729
			c-0.312-0.505-0.703-0.937-1.25-1.369s-1.25-0.865-2.108-1.225c-0.859-0.36-1.874-0.793-3.046-1.225
			c-1.405-0.576-2.655-1.081-3.592-1.657c-1.015-0.577-1.796-1.225-2.342-1.874c-0.625-0.648-1.016-1.369-1.329-2.161
			c-0.312-0.793-0.39-1.658-0.39-2.523c0-1.152,0.234-2.234,0.78-3.17c0.546-0.937,1.172-1.729,2.108-2.378
			c0.859-0.649,1.952-1.153,3.202-1.513c1.25-0.36,2.577-0.504,3.983-0.504c1.483,0,2.811,0.144,3.904,0.36
			c1.093,0.216,2.031,0.504,2.733,0.937c0.703,0.36,1.25,0.866,1.562,1.37c0.312,0.504,0.547,1.081,0.547,1.729
			c0,0.432-0.078,0.865-0.313,1.225c-0.234,0.361-0.546,0.721-0.937,1.009c-0.391,0.288-0.937,0.505-1.562,0.648
			c-0.625,0.144-1.406,0.216-2.187,0.216c0-0.505-0.078-1.081-0.234-1.729c-0.157-0.577-0.391-1.153-0.781-1.729
			c-0.313-0.504-0.781-0.937-1.328-1.297c-0.547-0.36-1.25-0.504-2.031-0.504c-0.546,0-1.093,0.072-1.562,0.216
			c-0.469,0.144-0.937,0.36-1.328,0.648c-0.391,0.288-0.625,0.648-0.859,1.081c-0.235,0.433-0.312,0.937-0.312,1.514
			c0,0.504,0.078,1.008,0.312,1.513c0.155,0.432,0.547,0.937,1.015,1.369c0.469,0.432,1.172,0.865,2.031,1.369
			c0.859,0.433,2.03,0.938,3.357,1.441c1.405,0.504,2.578,1.081,3.592,1.658c1.016,0.577,1.796,1.153,2.421,1.802
			c0.625,0.648,1.093,1.297,1.405,2.089s0.469,1.585,0.469,2.522c0,1.226-0.234,2.307-0.782,3.315
			c-0.546,1.009-1.249,1.874-2.264,2.595c-0.937,0.721-2.109,1.297-3.515,1.729C202.626,374.456,201.064,374.672,199.346,374.672z"
			/>
		<path fill="#333333" d="M216.215,374.312v-2.018h1.718c0.312,0,0.625,0,0.859-0.072s0.468-0.145,0.625-0.361
			c0.155-0.216,0.312-0.432,0.468-0.721c0.078-0.288,0.156-0.721,0.156-1.297v-18.087c0-0.577-0.078-0.937-0.156-1.297
			c-0.078-0.288-0.235-0.576-0.468-0.721c-0.235-0.144-0.391-0.288-0.625-0.36c-0.234-0.072-0.546-0.072-0.859-0.072h-1.718v-2.018
			h14.135v2.018h-1.718c-0.313,0-0.547,0-0.859,0.072c-0.234,0.072-0.47,0.144-0.703,0.36c-0.157,0.145-0.312,0.433-0.469,0.721
			c-0.078,0.288-0.155,0.72-0.155,1.297v18.087c0,0.577,0.078,0.938,0.155,1.297c0.078,0.289,0.235,0.577,0.469,0.721
			c0.156,0.144,0.39,0.289,0.703,0.361c0.312,0.072,0.546,0.072,0.859,0.072h1.718v2.018H216.215z"/>
		<path fill="#333333" d="M251.435,371.645c1.015,0,1.874-0.072,2.655-0.288c0.781-0.216,1.484-0.504,2.109-0.865
			s1.171-0.721,1.64-1.153c0.469-0.432,0.859-0.864,1.171-1.297c0.235,0.144,0.391,0.36,0.546,0.648
			c0.157,0.288,0.157,0.648,0.157,0.937c0,0.504-0.157,1.081-0.469,1.657c-0.312,0.577-0.858,1.154-1.561,1.586
			c-0.704,0.504-1.641,0.865-2.89,1.225c-1.171,0.289-2.656,0.505-4.373,0.505c-2.343,0-4.452-0.36-6.248-1.009
			c-1.796-0.648-3.28-1.586-4.451-2.811c-1.171-1.226-2.031-2.667-2.655-4.396c-0.625-1.729-0.859-3.603-0.859-5.693
			c0-2.018,0.312-3.891,0.938-5.62c0.625-1.73,1.483-3.172,2.655-4.396c1.171-1.225,2.655-2.163,4.451-2.811
			c1.796-0.648,3.827-1.009,6.17-1.009c1.562,0,2.967,0.145,4.139,0.361c1.171,0.216,2.108,0.504,2.89,0.936
			c0.78,0.36,1.327,0.865,1.717,1.37s0.547,1.082,0.547,1.729c0,0.432-0.078,0.937-0.312,1.297
			c-0.235,0.433-0.547,0.721-1.016,1.009c-0.469,0.288-0.937,0.504-1.64,0.72c-0.625,0.144-1.406,0.216-2.187,0.216
			c0-0.648-0.077-1.225-0.235-1.874c-0.155-0.648-0.39-1.152-0.781-1.657c-0.39-0.505-0.78-0.937-1.406-1.225
			c-0.547-0.288-1.249-0.504-2.108-0.504c-1.328,0-2.421,0.288-3.28,0.793c-0.858,0.504-1.64,1.225-2.187,2.233
			c-0.546,0.937-0.936,2.162-1.17,3.603s-0.391,3.026-0.391,4.9c0,1.874,0.157,3.388,0.469,4.756
			c0.312,1.369,0.781,2.522,1.405,3.387c0.625,0.936,1.484,1.585,2.578,2.018C248.623,371.429,249.95,371.645,251.435,371.645z"/>
	</g>
</g>
<g>
	<g>
		<path fill="#333333" d="M123.594,308.159c1.875-0.721,3.437-0.865,4.686-0.36c1.483,0.576,2.578,1.946,3.436,4.107
			c0.859,2.162,1.015,3.891,0.469,5.188c-0.469,1.153-1.484,2.018-3.125,2.666c-1.64,0.648-3.045,0.793-4.294,0.36
			c-1.406-0.504-2.655-1.729-3.827-3.819c-1.092-2.018-1.405-3.747-0.937-5.116C120.549,309.889,121.72,308.879,123.594,308.159z
			 M129.374,312.699c-0.781-1.801-1.562-2.954-2.421-3.531s-1.796-0.648-2.967-0.217c-1.094,0.433-1.718,1.153-1.875,2.162
			c-0.078,0.937,0.312,2.306,1.171,4.036c0.859,1.729,1.795,2.882,2.577,3.458c0.859,0.577,1.718,0.648,2.733,0.216
			c1.016-0.432,1.562-1.081,1.641-2.018C130.467,315.87,130.076,314.5,129.374,312.699z"/>
		<path fill="#333333" d="M138.042,310.249c0.546,1.585,1.015,3.099,1.562,4.685c0.703-0.216,1.328-0.36,2.03-0.504
			c0.079,0.289,0.157,0.577,0.235,0.864c-1.797,0.433-3.593,1.009-5.389,1.513c-0.079-0.288-0.234-0.576-0.312-0.865
			c0.39-0.144,0.858-0.288,1.249-0.36c-1.171-3.315-2.343-6.63-3.514-9.873c-0.469,0.144-0.938,0.288-1.406,0.433
			c-0.078-0.289-0.234-0.577-0.312-0.865c1.796-0.576,3.514-1.081,5.31-1.513c1.718-0.432,3.045-0.504,3.905-0.216
			c0.859,0.288,1.406,1.009,1.718,2.089c0.156,0.721,0.078,1.441-0.391,2.162c-0.39,0.648-0.937,1.081-1.562,1.369
			c1.016,0.072,1.953,0.721,2.812,1.874c0.625,0.792,1.172,1.657,1.796,2.45c0.39-0.072,0.858-0.144,1.249-0.289
			c0.078,0.289,0.157,0.577,0.235,0.938c-1.172,0.215-2.265,0.504-3.436,0.721c-0.703-1.082-1.484-2.235-2.265-3.315
			c-0.234-0.36-0.547-0.721-0.937-0.937c-0.703-0.505-1.406-0.649-2.108-0.433C138.354,310.177,138.199,310.249,138.042,310.249z
			 M137.73,309.384c0.156-0.072,0.312-0.072,0.469-0.144c1.093-0.289,1.796-0.72,2.186-1.225c0.312-0.432,0.312-1.081,0.156-1.801
			c-0.39-1.441-1.327-1.945-2.811-1.585c-0.468,0.145-0.937,0.216-1.406,0.36C136.793,306.429,137.261,307.943,137.73,309.384z"/>
		<path fill="#333333" d="M152.646,312.266c0.39-0.072,0.859-0.144,1.25-0.144c0.078,0.288,0.078,0.648,0.156,0.936
			c-1.64,0.217-3.202,0.433-4.764,0.721c-0.078-0.288-0.156-0.577-0.156-0.937c0.468-0.072,0.859-0.144,1.328-0.216
			c-0.625-3.387-1.328-6.846-1.953-10.233c-0.469,0.072-0.938,0.145-1.406,0.217c-0.078-0.289-0.156-0.577-0.156-0.938
			c1.796-0.288,3.67-0.576,5.466-0.864c0.078,0.288,0.078,0.648,0.156,0.937c-0.469,0.072-0.937,0.144-1.406,0.216
			C151.475,305.348,152.099,308.808,152.646,312.266z"/>
		<path fill="#333333" d="M161.236,299.872c1.874-0.072,3.358,0.216,4.529,0.865c0,0.576,0,1.225,0,1.802c-0.468,0-0.937,0-1.406,0
			c0-0.361,0-0.649,0-1.01c-0.859-0.576-1.953-0.864-3.045-0.792c-1.171,0.072-2.03,0.504-2.499,1.44
			c-0.469,0.865-0.547,2.234-0.391,4.18c0.157,1.946,0.546,3.243,1.094,4.035c0.546,0.793,1.328,1.153,2.421,1.082
			c0.937-0.072,1.64-0.288,2.108-0.793c-0.079-1.153-0.079-2.378-0.156-3.531c-0.469,0-0.937,0-1.405,0.072
			c0-0.288,0-0.577-0.079-0.937c1.25-0.072,2.578-0.072,3.827-0.072c0,1.657,0,3.387,0.078,5.044
			c-1.328,0.72-2.812,1.081-4.373,1.152c-1.718,0.072-3.046-0.288-4.061-1.08c-1.093-0.938-1.796-2.522-2.109-4.757
			c-0.312-2.233,0.079-3.963,1.016-5.044C157.801,300.521,159.284,299.944,161.236,299.872z"/>
		<path fill="#333333" d="M172.95,311.402c0.39,0,0.859,0.072,1.25,0.072c0,0.288-0.078,0.648-0.078,0.936
			c-1.64-0.144-3.202-0.144-4.842-0.216c0-0.288,0-0.648,0-0.937c0.468,0,0.859,0,1.328,0c0.156-3.459,0.233-6.918,0.39-10.449
			c-0.468,0-0.937,0-1.483-0.072c0-0.288,0-0.649,0-0.937c1.874,0.072,3.671,0.144,5.545,0.216c0,0.288-0.079,0.648-0.079,0.937
			c-0.468,0-0.938-0.072-1.405-0.072C173.419,304.412,173.185,307.871,172.95,311.402z"/>
		<path fill="#333333" d="M184.665,313.635c-1.172-3.675-2.5-7.278-4.062-10.881c-0.39,3.027-0.859,6.125-1.25,9.152
			c0.391,0.072,0.86,0.072,1.25,0.144c-0.077,0.288-0.077,0.648-0.156,0.937c-1.171-0.144-2.343-0.288-3.514-0.432
			c0-0.289,0.078-0.648,0.078-0.937c0.39,0.072,0.859,0.072,1.25,0.144c0.468-3.458,0.858-6.917,1.327-10.377
			c-0.469-0.072-0.937-0.072-1.406-0.144c0-0.289,0.079-0.648,0.079-0.937c1.405,0.145,2.733,0.289,4.139,0.433
			c1.483,3.531,2.811,7.062,3.982,10.593c0.625-2.883,1.25-5.837,1.875-8.72c-0.468-0.072-0.938-0.145-1.405-0.289
			c0.078-0.288,0.156-0.577,0.156-0.937c1.328,0.216,2.655,0.505,4.061,0.793c-0.078,0.288-0.157,0.576-0.234,0.937
			c-0.469-0.072-0.938-0.216-1.405-0.288c-0.859,3.675-1.719,7.422-2.577,11.097C186.07,313.924,185.367,313.779,184.665,313.635z"
			/>
		<path fill="#333333" d="M193.958,311.834c-0.547,0.792-1.094,1.585-1.641,2.45c0.391,0.072,0.859,0.216,1.25,0.289
			c-0.078,0.289-0.157,0.576-0.312,0.865c-1.25-0.288-2.421-0.648-3.671-0.865c0.078-0.289,0.156-0.577,0.235-0.938
			c0.39,0.072,0.859,0.217,1.249,0.289c2.03-3.099,4.217-6.125,6.481-9.151c-0.468-0.145-0.937-0.216-1.405-0.361
			c0.078-0.288,0.155-0.576,0.312-0.864c1.25,0.36,2.577,0.721,3.827,1.081c0.078,4.035,0,7.999-0.235,11.962
			c0.391,0.144,0.859,0.288,1.25,0.433c-0.156,0.288-0.235,0.577-0.391,0.865c-1.562-0.577-3.124-1.081-4.763-1.513
			c0.078-0.289,0.233-0.577,0.312-0.865c0.391,0.145,0.858,0.216,1.25,0.36c0-0.937,0.078-1.946,0.078-2.883
			C196.535,312.555,195.285,312.194,193.958,311.834z M197.863,311.978c0-1.801,0-3.675-0.079-5.477
			c-1.171,1.513-2.265,3.026-3.358,4.54C195.676,311.33,196.769,311.618,197.863,311.978z"/>
		<path fill="#333333" d="M213.246,310.393c-0.703-0.288-1.327-0.576-2.03-0.865c-1.562,3.171-3.124,6.342-4.607,9.513
			c1.015,0.432,2.03,0.865,3.045,1.296c0.235-0.432,0.469-0.793,0.625-1.225c0.391,0.216,0.781,0.36,1.171,0.576
			c-0.39,0.648-0.781,1.37-1.094,2.018c-2.42-1.153-4.919-2.234-7.496-3.17c0.155-0.289,0.234-0.577,0.39-0.865
			c0.39,0.144,0.781,0.288,1.25,0.432c1.484-3.17,2.889-6.414,4.374-9.584c-0.469-0.145-0.938-0.36-1.328-0.505
			c0.156-0.288,0.233-0.577,0.391-0.865c1.952,0.721,3.904,1.513,5.856,2.378C213.559,309.816,213.403,310.104,213.246,310.393z"/>
	</g>
</g>
<g>
	<g>
		<path fill="#333333" d="M129.998,405.875c1.875-2.595,3.67-5.188,5.467-7.854c-0.391-0.072-0.859-0.217-1.25-0.289
			c0.078-0.288,0.156-0.576,0.313-0.865c1.17,0.289,2.42,0.577,3.591,0.865c-0.078,0.289-0.156,0.577-0.234,0.937
			c-0.391-0.071-0.859-0.216-1.25-0.289c-2.265,3.388-4.608,6.703-7.028,10.017c-0.703-0.216-1.328-0.359-2.03-0.577
			c-0.078-3.963,0-7.926,0.156-11.89c-0.39-0.144-0.859-0.288-1.249-0.432c0.078-0.288,0.234-0.577,0.312-0.865
			c1.562,0.504,3.125,1.01,4.687,1.442c-0.079,0.289-0.234,0.577-0.312,0.864c-0.392-0.144-0.781-0.216-1.25-0.359
			C129.921,399.678,129.921,402.776,129.998,405.875z"/>
		<path fill="#333333" d="M140.932,409.982c0.468,0.073,0.938,0.144,1.327,0.216c-0.077,0.288-0.156,0.577-0.156,0.936
			c-1.718-0.288-3.515-0.648-5.233-1.008c0.079-0.289,0.156-0.577,0.235-0.937c0.469,0.071,0.937,0.216,1.406,0.289
			c0.78-3.388,1.64-6.774,2.42-10.161c-0.391-0.072-0.86-0.144-1.25-0.289c0.078-0.288,0.157-0.577,0.235-0.937
			c1.562,0.36,3.124,0.649,4.686,0.937c-0.078,0.289-0.157,0.577-0.157,0.937c-0.39-0.072-0.859-0.145-1.249-0.217
			C142.415,403.137,141.713,406.524,140.932,409.982z"/>
		<path fill="#333333" d="M153.661,412.648c-1.641-3.531-3.124-7.134-4.452-10.737c-0.469,3.026-0.937,6.126-1.405,9.151
			c0.468,0.072,0.937,0.145,1.405,0.145c-0.078,0.289-0.078,0.649-0.156,0.938c-1.328-0.145-2.577-0.361-3.904-0.505
			c0.078-0.289,0.078-0.648,0.156-0.937c0.469,0.073,0.938,0.144,1.327,0.216c0.547-3.458,1.172-6.846,1.718-10.305
			c-0.39-0.072-0.858-0.145-1.249-0.216c0.079-0.288,0.079-0.649,0.156-0.936c1.171,0.216,2.421,0.359,3.593,0.504
			c1.249,3.459,2.733,6.918,4.373,10.376c0.313-2.954,0.547-5.909,0.859-8.863c-0.391,0-0.859-0.072-1.25-0.145
			c0-0.288,0.079-0.648,0.079-0.937c1.171,0.071,2.342,0.216,3.514,0.289c0,0.288-0.078,0.648-0.078,0.937
			c-0.391,0-0.859-0.071-1.25-0.071c-0.312,3.747-0.625,7.566-0.937,11.313C155.301,412.792,154.442,412.721,153.661,412.648z"/>
		<path fill="#333333" d="M168.733,413.153c-2.265,0.072-4.452,0-6.716,0c0-0.288,0-0.649,0-0.938c0.703,0,1.406,0,2.109,0.072
			c0.079-3.458,0.079-6.99,0.156-10.448c-1.015,0-2.108,0-3.123-0.072c0,0.432-0.079,0.865-0.079,1.369
			c-0.468,0-0.858,0-1.327-0.072c0.078-0.792,0.078-1.513,0.156-2.307c3.671,0.145,7.341,0.217,10.933,0.072
			c0,0.793,0.08,1.514,0.08,2.307c-0.469,0-0.86,0-1.328,0.072c0-0.433,0-0.937-0.078-1.369c-1.016,0-2.031,0.071-3.124,0.071
			c0,3.459,0,6.991,0.078,10.449c0.703,0,1.405,0,2.108,0C168.733,412.504,168.733,412.865,168.733,413.153z"/>
		<path fill="#333333" d="M175.918,409.118c-0.235,0.937-0.469,1.874-0.704,2.81c0.469,0,0.938-0.071,1.406-0.071
			c0,0.289,0.078,0.648,0.078,0.936c-1.406,0.073-2.733,0.218-4.139,0.289c0-0.289,0-0.648-0.078-0.937
			c0.468,0,0.937-0.073,1.405-0.073c1.015-3.531,1.874-7.062,2.655-10.665c-0.39,0-0.859,0.072-1.25,0.072
			c0-0.289-0.078-0.649-0.078-0.938c1.172-0.072,2.265-0.216,3.437-0.288c1.64,3.676,3.436,7.278,5.311,10.809
			c0.468-0.071,0.938-0.144,1.405-0.216c0.078,0.288,0.078,0.649,0.156,0.937c-1.796,0.288-3.592,0.504-5.388,0.649
			c0-0.288-0.079-0.649-0.079-0.937c0.469-0.073,0.937-0.073,1.406-0.145c-0.469-0.864-0.86-1.729-1.328-2.593
			C178.651,408.902,177.324,409.045,175.918,409.118z M179.666,407.893c-0.781-1.657-1.562-3.387-2.265-5.044
			c-0.39,1.801-0.78,3.603-1.171,5.332C177.324,408.108,178.494,407.965,179.666,407.893z"/>
		<path fill="#333333" d="M190.444,398.309c1.562-0.288,2.889-0.288,4.139,0.144c0.156,0.577,0.312,1.153,0.468,1.729
			c-0.39,0.072-0.857,0.217-1.249,0.288c-0.078-0.359-0.157-0.648-0.234-1.007c-0.937-0.433-1.875-0.505-2.811-0.361
			c-1.016,0.216-1.719,0.72-2.03,1.657c-0.313,0.938-0.234,2.307,0.156,4.18c0.39,1.874,0.938,3.171,1.562,3.964
			c0.703,0.72,1.562,1.008,2.732,0.72c1.017-0.216,1.719-0.577,2.109-1.153c-0.312-1.153-0.625-2.306-0.859-3.459
			c-0.468,0.073-0.859,0.216-1.328,0.289c-0.078-0.289-0.156-0.577-0.234-0.865c1.249-0.289,2.421-0.504,3.671-0.792
			c0.468,1.657,0.937,3.243,1.328,4.9c-1.25,1.009-2.733,1.658-4.452,2.017c-1.874,0.361-3.357,0.145-4.529-0.576
			c-1.25-0.865-2.03-2.378-2.5-4.612c-0.39-2.234-0.234-3.963,0.547-5.117C187.632,399.317,188.804,398.668,190.444,398.309z"/>
		<path fill="#333333" d="M204.578,406.74c1.094-0.361,2.264-0.649,3.358-1.009c-0.157-0.432-0.312-0.865-0.469-1.297
			c0.469-0.145,0.858-0.289,1.327-0.433c0.312,0.721,0.547,1.441,0.859,2.163c-2.812,0.936-5.701,1.802-8.512,2.522
			c-0.079-0.289-0.157-0.577-0.313-0.865c0.469-0.144,0.938-0.216,1.329-0.359c-1.094-3.315-2.109-6.63-3.202-10.017
			c-0.391,0.144-0.781,0.216-1.25,0.359c-0.078-0.288-0.156-0.576-0.312-0.865c2.576-0.648,5.076-1.44,7.574-2.233
			c0.313,0.72,0.547,1.442,0.859,2.162c-0.39,0.144-0.859,0.289-1.249,0.432c-0.156-0.432-0.312-0.865-0.468-1.297
			c-1.015,0.288-2.031,0.649-2.968,0.936c0.469,1.441,1.016,2.883,1.483,4.396c0.781-0.216,1.64-0.504,2.421-0.721
			c-0.079-0.288-0.234-0.576-0.312-0.865c0.39-0.144,0.858-0.287,1.25-0.432c0.312,0.864,0.625,1.729,1.015,2.594
			c-0.39,0.145-0.859,0.289-1.25,0.433c-0.078-0.289-0.234-0.577-0.312-0.865c-0.782,0.288-1.64,0.504-2.422,0.72
			C203.486,403.641,204.031,405.154,204.578,406.74z"/>
	</g>
</g>
<path fill="#333333" d="M186.304,327.111c1.172,2.522,0,9.584-5.856,2.522c-5.545-6.774-12.574-1.081-13.198-0.576
	c-0.625-0.504-7.653-6.198-13.198,0.576c-5.857,7.062-6.951,0-5.857-2.522c0,0-7.185,5.981-0.234,12.035
	c5.857,5.044,16.712,1.873,19.29-3.748c2.576,5.621,13.354,8.792,19.29,3.748C193.489,333.165,186.304,327.111,186.304,327.111z"/>
<g>
	<g>
		<path fill="#333333" d="M145.383,381.374v1.369h-0.938v-0.433h-0.937v0.865h0.937v0.865h-0.937v0.865h0.937v-0.432h0.938v1.368
			h-3.436v-0.864h0.468v-2.667h-0.468v-0.864h3.436V381.374z"/>
		<path fill="#333333" d="M149.444,383.175c0.391,0.072,0.704,0.145,0.938,0.288c0.234,0.145,0.39,0.289,0.547,0.433
			c0.155,0.144,0.234,0.289,0.234,0.433c0,0.145,0.079,0.288,0.079,0.36c0,0.144-0.079,0.36-0.157,0.504
			c-0.077,0.144-0.155,0.288-0.312,0.432c-0.156,0.145-0.312,0.216-0.469,0.289c-0.155,0.072-0.39,0.072-0.624,0.072
			c-0.235,0-0.469,0-0.625-0.072s-0.391-0.072-0.468-0.144v0.216h-0.938v-1.369h0.938c0.078,0.072,0.156,0.145,0.234,0.216
			c0.078,0.073,0.156,0.145,0.234,0.145c0.078,0.071,0.156,0.071,0.312,0.071c0.078,0,0.234,0,0.391,0c0.157,0,0.312,0,0.469-0.071
			c0.156-0.072,0.156-0.145,0.156-0.289c0-0.072,0-0.145-0.079-0.216c-0.078-0.072-0.155-0.145-0.234-0.145
			c-0.077-0.072-0.234-0.072-0.312-0.144c-0.078,0-0.233-0.072-0.312-0.072c-0.39-0.072-0.703-0.145-0.937-0.288
			c-0.234-0.145-0.391-0.216-0.547-0.361c-0.156-0.144-0.234-0.288-0.234-0.432c0-0.145-0.078-0.289-0.078-0.361
			c0-0.216,0.078-0.36,0.157-0.504c0.077-0.144,0.156-0.289,0.312-0.432c0.157-0.145,0.312-0.216,0.469-0.289
			c0.156-0.073,0.39-0.073,0.625-0.073c0.234,0,0.469,0,0.625,0.073c0.157,0.072,0.313,0.072,0.468,0.144v-0.216h0.859v1.369h-1.015
			c-0.079-0.072-0.156-0.145-0.234-0.217c-0.079-0.071-0.157-0.144-0.234-0.144c-0.079-0.072-0.156-0.072-0.313-0.072
			c-0.078,0-0.234,0-0.312,0c-0.156,0-0.312,0.072-0.468,0.145c-0.078,0.071-0.157,0.144-0.157,0.288
			C148.507,382.887,148.82,383.103,149.444,383.175z"/>
		<path fill="#333333" d="M157.253,381.374v1.369h-0.937v-0.433h-0.468v2.667h0.468v0.864h-1.953v-0.864h0.469v-2.667h-0.469v0.433
			h-1.015v-1.369H157.253z"/>
		<path fill="#333333" d="M161.392,381.374c0.234,0,0.547,0.072,0.781,0.144c0.234,0.072,0.468,0.216,0.625,0.36
			c0.156,0.145,0.312,0.361,0.391,0.577c0.078,0.216,0.156,0.432,0.156,0.72v0.865c0,0.216-0.078,0.504-0.156,0.721
			c-0.079,0.216-0.234,0.432-0.391,0.576c-0.157,0.145-0.391,0.288-0.625,0.361c-0.234,0.072-0.469,0.144-0.781,0.144h-1.952v-0.864
			h0.468v-2.667h-0.468v-0.864h1.952V381.374z M161.392,384.905c0.156,0,0.234,0,0.391-0.073c0.156-0.071,0.234-0.144,0.312-0.216
			s0.157-0.144,0.234-0.288c0.078-0.144,0.078-0.216,0.078-0.361v-0.865c0-0.144,0-0.216-0.078-0.36
			c-0.077-0.145-0.156-0.217-0.234-0.288c-0.078-0.072-0.156-0.145-0.312-0.216c-0.156-0.072-0.234-0.072-0.391-0.072h-0.469v2.666
			h0.469V384.905z"/>
		<path fill="#333333" d="M166,384.761c0.157,0,0.312,0.071,0.391,0.144c0.078,0.072,0.156,0.216,0.156,0.36
			c0,0.144-0.078,0.287-0.156,0.359c-0.078,0.073-0.234,0.145-0.391,0.145c-0.156,0-0.312-0.072-0.39-0.145
			c-0.078-0.072-0.156-0.216-0.156-0.359c0-0.145,0.078-0.288,0.156-0.36C165.687,384.833,165.844,384.761,166,384.761z"/>
		<path fill="#333333" d="M174.746,384.905v0.865h-1.952v-0.865h0.468v-2.667h-0.468v-0.865h1.483v3.604h0.469V384.905z"/>
		<path fill="#333333" d="M178.885,381.374c0.234,0,0.391,0,0.546,0.072c0.156,0.072,0.312,0.144,0.469,0.289
			c0.156,0.144,0.235,0.288,0.312,0.432c0.078,0.144,0.078,0.359,0.078,0.504v1.803c0,0.216,0,0.359-0.078,0.504
			c-0.078,0.144-0.156,0.288-0.312,0.432c-0.157,0.144-0.312,0.216-0.469,0.289c-0.156,0.072-0.391,0.072-0.546,0.072h-0.469
			c-0.234,0-0.39,0-0.546-0.072c-0.157-0.073-0.313-0.145-0.469-0.289c-0.155-0.144-0.234-0.288-0.312-0.432
			c-0.078-0.145-0.078-0.361-0.078-0.504h0.937c0,0.144,0.078,0.216,0.156,0.288c0.078,0.071,0.234,0.144,0.312,0.144h0.469
			c0.156,0,0.234-0.073,0.313-0.144c0.078-0.072,0.155-0.217,0.155-0.288v-0.505c-0.155,0.072-0.312,0.072-0.468,0.072h-0.469
			c-0.234,0-0.39,0-0.546-0.072c-0.157-0.072-0.312-0.144-0.469-0.288c-0.155-0.144-0.234-0.289-0.312-0.433
			c-0.078-0.145-0.078-0.36-0.078-0.504c0-0.217,0-0.36,0.078-0.504c0.078-0.145,0.157-0.289,0.312-0.433
			c0.156-0.144,0.312-0.216,0.469-0.288c0.156-0.072,0.391-0.072,0.546-0.072h0.469V381.374z M178.885,383.175
			c0.156,0,0.234-0.072,0.313-0.144c0.078-0.072,0.155-0.217,0.155-0.289c0-0.072-0.077-0.217-0.155-0.288
			c-0.079-0.072-0.235-0.145-0.313-0.145h-0.469c-0.155,0-0.234,0.072-0.312,0.145c-0.079,0.071-0.156,0.216-0.156,0.288
			c0,0.072,0.078,0.216,0.156,0.289c0.078,0.071,0.234,0.144,0.312,0.144H178.885z"/>
		<path fill="#333333" d="M184.742,383.103c0.157,0.072,0.391,0.145,0.469,0.288c0.156,0.145,0.234,0.289,0.312,0.434
			c0.079,0.144,0.157,0.36,0.157,0.577c0,0.216-0.078,0.36-0.157,0.577c-0.078,0.144-0.156,0.359-0.312,0.432
			c-0.156,0.144-0.312,0.216-0.469,0.289c-0.155,0.072-0.39,0.144-0.625,0.144h-0.234c-0.234,0-0.39,0-0.546-0.071
			c-0.157-0.072-0.313-0.145-0.469-0.289c-0.156-0.145-0.235-0.288-0.313-0.433c-0.077-0.144-0.077-0.36-0.077-0.504h0.937
			c0,0.145,0.078,0.217,0.156,0.288c0.079,0.073,0.235,0.145,0.312,0.145h0.234c0.157,0,0.312-0.072,0.39-0.145
			c0.08-0.071,0.157-0.216,0.157-0.359c0-0.145-0.078-0.289-0.157-0.361c-0.078-0.072-0.233-0.145-0.39-0.145H182.4v-2.522h3.124
			v1.369h-0.936v-0.432h-1.25v0.72h0.702C184.352,382.959,184.587,383.031,184.742,383.103z"/>
		<path fill="#333333" d="M189.819,381.374c0.234,0,0.39,0,0.546,0.072c0.157,0.072,0.313,0.144,0.469,0.289
			c0.157,0.144,0.234,0.288,0.312,0.432c0.078,0.144,0.078,0.359,0.078,0.504v1.803c0,0.216,0,0.359-0.078,0.504
			c-0.078,0.144-0.156,0.288-0.312,0.432c-0.156,0.144-0.312,0.216-0.469,0.289c-0.156,0.072-0.391,0.072-0.546,0.072h-0.47
			c-0.234,0-0.39,0-0.545-0.072c-0.157-0.073-0.312-0.145-0.469-0.289c-0.156-0.144-0.233-0.288-0.313-0.432
			c-0.078-0.145-0.078-0.361-0.078-0.504h0.938c0,0.144,0.078,0.216,0.155,0.288c0.079,0.071,0.235,0.144,0.312,0.144h0.47
			c0.155,0,0.234-0.073,0.312-0.144c0.078-0.072,0.156-0.217,0.156-0.288v-0.505c-0.156,0.072-0.313,0.072-0.468,0.072h-0.47
			c-0.234,0-0.39,0-0.545-0.072c-0.157-0.072-0.312-0.144-0.469-0.288c-0.156-0.144-0.233-0.289-0.313-0.433
			c-0.078-0.145-0.078-0.36-0.078-0.504c0-0.217,0-0.36,0.078-0.504c0.08-0.145,0.157-0.289,0.313-0.433
			c0.157-0.144,0.312-0.216,0.469-0.288c0.155-0.072,0.39-0.072,0.545-0.072h0.47V381.374z M189.819,383.175
			c0.155,0,0.234-0.072,0.312-0.144c0.078-0.072,0.156-0.217,0.156-0.289c0-0.072-0.078-0.217-0.156-0.288
			c-0.078-0.072-0.235-0.145-0.312-0.145h-0.47c-0.155,0-0.234,0.072-0.312,0.145c-0.078,0.071-0.155,0.216-0.155,0.288
			c0,0.072,0.078,0.216,0.155,0.289c0.079,0.071,0.235,0.144,0.312,0.144H189.819z"/>
	</g>
</g>
<g>
	<rect x="72.209" y="338.064" fill="#333333" width="63.1" height="2.451"/>
</g>
<g>
	<rect x="198.331" y="338.064" fill="#333333" width="61.304" height="2.451"/>
</g>
<g>
	<rect x="72.209" y="381.734" fill="#333333" width="63.1" height="2.45"/>
</g>
<g>
	<rect x="198.331" y="381.734" fill="#333333" width="61.304" height="2.45"/>
</g>
</svg>
